<?xml version="1.0" ?><svg xmlns="http://www.w3.org/2000/svg" xmlns:xlink="http://www.w3.org/1999/xlink" version="1.1" id="design" viewBox="0 0 100 100" style="enable-background:new 0 0 100 100;" xml:space="preserve"><style type="text/css">
	.st0{fill:#FBB040;}
	.st1{fill:#F1920C;}
	.st2{fill:#005EB8;}
	.st3{fill:#FFFFFF;}
	.st4{fill:#0A83F1;}
</style><g><g><path class="st0" d="M68.8,49.4c-8.9,0-23,16.1-23,16.1s14.2,16.1,23,16.1s16.1-7.2,16.1-16.1S77.7,49.4,68.8,49.4z M68.8,75.4    c-0.3,0-3.5-0.2-10.8-6.5c-1.4-1.2-2.7-2.4-3.8-3.5c1.1-1.1,2.4-2.3,3.7-3.4c7.4-6.4,10.6-6.6,10.9-6.6c5.5,0,10,4.5,10,10    S74.4,75.4,68.8,75.4z"/></g><g><path class="st1" d="M31.2,49.4c-8.9,0-16.1,7.2-16.1,16.1s7.2,16.1,16.1,16.1s23-16.1,23-16.1S40,49.4,31.2,49.4z M42,69    c-7.3,6.3-10.5,6.5-10.8,6.5c-5.5,0-10-4.5-10-10s4.5-10,10-10c0.3,0,3.5,0.2,10.9,6.6c1.4,1.2,2.6,2.4,3.7,3.4    C44.7,66.5,43.4,67.8,42,69z"/></g><ellipse transform="matrix(0.9239 -0.3827 0.3827 0.9239 -8.5273 21.5874)" class="st2" cx="50" cy="32.2" rx="13.7" ry="13.7"/><g><circle class="st3" cx="50" cy="32.2" r="10.9"/></g><g><path class="st2" d="M52.3,36.1L49.3,33c-0.2-0.2-0.3-0.5-0.3-0.7v-6.5c0-0.6,0.5-1,1-1l0,0c0.6,0,1,0.5,1,1v5.6    c0,0.3,0.1,0.5,0.3,0.7l2.5,2.5c0.4,0.4,0.4,1.1,0,1.5l0,0C53.4,36.5,52.8,36.5,52.3,36.1z"/></g><g><g><path class="st4" d="M23.2,46.8h-2.1v-7.7c0-4.4,3.6-7.9,7.9-7.9h0.2v2.1h-0.2c-3.2,0-5.8,2.6-5.8,5.8V46.8z"/></g><g><g><polygon class="st4" points="28.5,34.9 33,32.2 28.5,29.6     "/></g></g></g><g><g><path class="st4" d="M78.9,43.1h-2.1v-4c0-3.2-2.6-5.8-5.8-5.8H67v-2.1H71c4.4,0,7.9,3.6,7.9,7.9V43.1z"/></g><g><g><polygon class="st4" points="80.5,42.3 77.9,46.8 75.3,42.3     "/></g></g></g></g></svg>